<?xml version="1.0" encoding="UTF-8"?>
<!DOCTYPE svg PUBLIC "-//W3C//DTD SVG 1.1//EN" "http://www.w3.org/Graphics/SVG/1.1/DTD/svg11.dtd">
<svg xmlns="http://www.w3.org/2000/svg" version="1.1" width="512px" height="512px" style="shape-rendering:geometricPrecision; text-rendering:geometricPrecision; image-rendering:optimizeQuality; fill-rule:evenodd; clip-rule:evenodd" xmlns:xlink="http://www.w3.org/1999/xlink">
<g><path style="opacity:0.954" fill="#020101" d="M 511.5,354.5 C 511.5,361.833 511.5,369.167 511.5,376.5C 506.988,396.859 498.155,415.192 485,431.5C 467.988,451.849 448.488,469.349 426.5,484C 421.581,484.714 417.247,483.381 413.5,480C 391.374,464.207 372.207,445.374 356,423.5C 343.093,405.78 335.926,385.947 334.5,364C 337.699,332.801 354.866,315.634 386,312.5C 400.552,313.071 413.052,318.405 423.5,328.5C 426.188,325.978 429.021,323.644 432,321.5C 432.105,309.119 432.772,296.786 434,284.5C 435.573,279.429 438.74,275.762 443.5,273.5C 444.667,224.503 444.833,175.503 444,126.5C 437.378,83.8779 413.212,57.0446 371.5,46C 320.948,39.5986 285.614,59.5986 265.5,106C 275.138,110.443 280.471,117.943 281.5,128.5C 292.549,128.15 303.549,128.65 314.5,130C 325.065,133.897 331.231,141.397 333,152.5C 333.667,180.5 333.667,208.5 333,236.5C 332.267,240.733 329.767,243.067 325.5,243.5C 321.671,242.657 319.171,240.323 318,236.5C 317.5,222.504 317.333,208.504 317.5,194.5C 309.167,194.5 300.833,194.5 292.5,194.5C 257.5,194.5 222.5,194.5 187.5,194.5C 187.851,200.262 187.351,205.928 186,211.5C 184.736,213.607 182.903,214.607 180.5,214.5C 179.833,214.5 179.5,214.833 179.5,215.5C 176.845,214.999 174.678,213.666 173,211.5C 172.333,190.5 172.333,169.5 173,148.5C 175.868,138.965 182.035,132.798 191.5,130C 203.78,128.606 216.114,128.106 228.5,128.5C 230.449,116.38 237.283,108.38 249,104.5C 269.564,50.7808 308.731,25.6141 366.5,29C 420.329,39.1633 451.496,71.3299 460,125.5C 460.167,174.837 460.667,224.17 461.5,273.5C 466.26,275.762 469.427,279.429 471,284.5C 472.033,294.47 472.866,304.47 473.5,314.5C 493.372,321.038 506.039,334.371 511.5,354.5 Z"/></g>
<g><path style="opacity:0.959" fill="#020101" d="M 138.5,154.5 C 136.657,151.436 136.157,148.103 137,144.5C 143.492,136.16 148.992,127.16 153.5,117.5C 146.866,116.503 140.2,116.17 133.5,116.5C 96.1607,116.167 58.8274,116.5 21.5,117.5C 34.4503,142.452 52.1169,163.452 74.5,180.5C 78.7907,183.778 83.124,187.112 87.5,190.5C 97.6012,183.235 107.268,175.402 116.5,167C 120.149,166.037 123.482,166.537 126.5,168.5C 129.101,172.11 128.934,175.777 126,179.5C 114.799,189.513 102.966,198.68 90.5,207C 88.5,207.667 86.5,207.667 84.5,207C 80.2467,204.29 76.0801,201.457 72,198.5C 72.8004,207.901 69.1337,214.901 61,219.5C 60.3333,264.5 60.3333,309.5 61,354.5C 64.2494,394.066 84.0827,421.566 120.5,437C 162.452,449.901 197.619,439.734 226,406.5C 237.838,390.486 244.005,372.486 244.5,352.5C 227.83,352.667 211.163,352.5 194.5,352C 183.509,349.674 176.342,343.174 173,332.5C 172.333,300.833 172.333,269.167 173,237.5C 174.571,235.077 176.737,233.744 179.5,233.5C 179.842,234.338 180.508,234.672 181.5,234.5C 184.019,234.848 185.853,236.181 187,238.5C 187.5,257.83 187.667,277.164 187.5,296.5C 230.663,297.499 273.997,297.832 317.5,297.5C 317.334,287.828 317.5,278.161 318,268.5C 319.124,264.538 321.624,262.205 325.5,261.5C 329.597,261.469 332.097,263.469 333,267.5C 333.667,287.833 333.667,308.167 333,328.5C 331.4,341.433 324.233,349.267 311.5,352C 294.503,352.5 277.503,352.667 260.5,352.5C 257.888,398.927 235.555,431.761 193.5,451C 149.668,466.534 110.668,458.7 76.5,427.5C 56.7188,407.261 46.2188,382.928 45,354.5C 44.6667,309.5 44.3333,264.5 44,219.5C 38.0771,216.232 34.4104,211.232 33,204.5C 32.6667,190.167 32.3333,175.833 32,161.5C 15.6098,143.719 4.77648,123.052 -0.5,99.5C -0.5,91.8333 -0.5,84.1667 -0.5,76.5C 10.0201,45.2285 31.6867,32.3952 64.5,38C 73.2966,40.6416 80.9633,45.1416 87.5,51.5C 103.341,36.7915 121.674,32.6249 142.5,39C 163.902,47.7842 175.235,63.7842 176.5,87C 174.746,113.161 165.079,135.827 147.5,155C 144.444,156.715 141.444,156.548 138.5,154.5 Z"/></g>
<g><path style="opacity:1" fill="#d7edea" d="M 159.5,99.5 C 111.354,101.164 63.3543,100.83 15.5,98.5C 11.3513,78.3009 18.3513,63.4676 36.5,54C 56.6433,48.3802 72.31,54.3802 83.5,72C 90.3431,73.8394 94.8431,71.3394 97,64.5C 109.236,51.2038 123.736,48.0372 140.5,55C 157.596,65.0951 163.93,79.9284 159.5,99.5 Z"/></g>
<g><path style="opacity:1" fill="#b5c7c4" d="M 15.5,98.5 C 63.3543,100.83 111.354,101.164 159.5,99.5C 111.845,101.495 63.8449,102.162 15.5,101.5C 15.5,100.5 15.5,99.5 15.5,98.5 Z"/></g>
<g><path style="opacity:1" fill="#fe5454" d="M 133.5,116.5 C 129.98,123.531 125.814,130.197 121,136.5C 107.027,152.881 91.5268,167.548 74.5,180.5C 52.1169,163.452 34.4503,142.452 21.5,117.5C 58.8274,116.5 96.1607,116.167 133.5,116.5 Z"/></g>
<g><path style="opacity:1" fill="#f42b2b" d="M 133.5,116.5 C 140.2,116.17 146.866,116.503 153.5,117.5C 148.992,127.16 143.492,136.16 137,144.5C 136.157,148.103 136.657,151.436 138.5,154.5C 134.874,159.461 130.874,164.128 126.5,168.5C 123.482,166.537 120.149,166.037 116.5,167C 107.268,175.402 97.6012,183.235 87.5,190.5C 83.124,187.112 78.7907,183.778 74.5,180.5C 91.5268,167.548 107.027,152.881 121,136.5C 125.814,130.197 129.98,123.531 133.5,116.5 Z"/></g>
<g><path style="opacity:1" fill="#cde2df" d="M 251.5,119.5 C 258.887,118.688 263.887,121.688 266.5,128.5C 259.197,129.497 251.863,129.831 244.5,129.5C 244.491,127.692 244.991,126.025 246,124.5C 247.812,122.7 249.645,121.033 251.5,119.5 Z"/></g>
<g><path style="opacity:1" fill="#fe5454" d="M 289.5,144.5 C 290.32,146.14 291.153,147.807 292,149.5C 292.5,159.161 292.666,168.828 292.5,178.5C 257.5,178.5 222.5,178.5 187.5,178.5C 187.334,169.494 187.5,160.494 188,151.5C 189.5,148.667 191.667,146.5 194.5,145C 226.165,144.5 257.832,144.333 289.5,144.5 Z"/></g>
<g><path style="opacity:1" fill="#f62b2b" d="M 289.5,144.5 C 296.508,144.334 303.508,144.5 310.5,145C 314.643,146.957 316.976,150.124 317.5,154.5C 317.5,162.5 317.5,170.5 317.5,178.5C 309.167,178.5 300.833,178.5 292.5,178.5C 292.666,168.828 292.5,159.161 292,149.5C 291.153,147.807 290.32,146.14 289.5,144.5 Z"/></g>
<g><path style="opacity:1" fill="#832727" d="M 317.5,154.5 C 318.493,162.65 318.826,170.983 318.5,179.5C 274.663,179.832 230.997,179.499 187.5,178.5C 222.5,178.5 257.5,178.5 292.5,178.5C 300.833,178.5 309.167,178.5 317.5,178.5C 317.5,170.5 317.5,162.5 317.5,154.5 Z"/></g>
<g><path style="opacity:1" fill="#608cae" d="M 48.5,178.5 C 50.8367,180.666 53.3367,182.666 56,184.5C 56.6667,190.833 56.6667,197.167 56,203.5C 53.9251,205.648 51.5918,205.982 49,204.5C 48.5002,195.84 48.3336,187.173 48.5,178.5 Z"/></g>
<g><path style="opacity:1" fill="#d7edea" d="M 292.5,194.5 C 292.5,204.833 292.5,215.167 292.5,225.5C 279.656,225.171 266.989,225.505 254.5,226.5C 248.808,228.002 246.975,231.668 249,237.5C 249.833,239 251,240.167 252.5,241C 265.829,241.5 279.163,241.667 292.5,241.5C 292.5,244.833 292.5,248.167 292.5,251.5C 264.662,251.169 236.995,251.502 209.5,252.5C 200.924,255.916 200.257,260.75 207.5,267C 235.831,267.5 264.165,267.667 292.5,267.5C 292.5,268.833 292.5,270.167 292.5,271.5C 264.662,271.169 236.995,271.502 209.5,272.5C 203.913,273.591 201.746,276.924 203,282.5C 204.451,284.464 206.284,285.797 208.5,286.5C 236.328,287.498 264.328,287.831 292.5,287.5C 292.5,290.5 292.5,293.5 292.5,296.5C 257.5,296.5 222.5,296.5 187.5,296.5C 187.667,277.164 187.5,257.83 187,238.5C 185.853,236.181 184.019,234.848 181.5,234.5C 180.54,227.922 180.207,221.255 180.5,214.5C 182.903,214.607 184.736,213.607 186,211.5C 187.351,205.928 187.851,200.262 187.5,194.5C 222.5,194.5 257.5,194.5 292.5,194.5 Z"/></g>
<g><path style="opacity:1" fill="#b6cec9" d="M 292.5,194.5 C 300.833,194.5 309.167,194.5 317.5,194.5C 317.333,208.504 317.5,222.504 318,236.5C 319.171,240.323 321.671,242.657 325.5,243.5C 325.5,249.5 325.5,255.5 325.5,261.5C 321.624,262.205 319.124,264.538 318,268.5C 317.5,278.161 317.334,287.828 317.5,297.5C 273.997,297.832 230.663,297.499 187.5,296.5C 222.5,296.5 257.5,296.5 292.5,296.5C 292.5,293.5 292.5,290.5 292.5,287.5C 264.328,287.831 236.328,287.498 208.5,286.5C 239.835,286.667 271.168,286.5 302.5,286C 307.833,281.667 307.833,277.333 302.5,273C 271.502,272.5 240.502,272.333 209.5,272.5C 236.995,271.502 264.662,271.169 292.5,271.5C 292.5,270.167 292.5,268.833 292.5,267.5C 298.008,268.278 302.508,266.611 306,262.5C 307.293,258.418 306.126,255.251 302.5,253C 271.502,252.5 240.502,252.333 209.5,252.5C 236.995,251.502 264.662,251.169 292.5,251.5C 292.5,248.167 292.5,244.833 292.5,241.5C 300.22,241.62 303.387,237.953 302,230.5C 301.5,228.667 300.333,227.5 298.5,227C 283.837,226.5 269.17,226.333 254.5,226.5C 266.989,225.505 279.656,225.171 292.5,225.5C 292.5,215.167 292.5,204.833 292.5,194.5 Z"/></g>
<g><path style="opacity:1" fill="#060606" d="M 216.5,207.5 C 224.629,206.051 228.296,209.384 227.5,217.5C 236.85,217.365 239.517,221.532 235.5,230C 233.091,231.707 230.425,232.54 227.5,232.5C 227.784,240.379 224.117,243.212 216.5,241C 213.922,238.772 212.589,235.939 212.5,232.5C 206.875,232.376 203.541,229.542 202.5,224C 203.837,218.838 207.171,216.671 212.5,217.5C 212.475,213.564 213.809,210.23 216.5,207.5 Z"/></g>
<g><path style="opacity:1" fill="#0a0b0b" d="M 251.5,207.5 C 259.174,207.334 266.841,207.5 274.5,208C 275.931,208.465 277.097,209.299 278,210.5C 279.992,216.337 278.158,220.171 272.5,222C 266.167,222.667 259.833,222.667 253.5,222C 246.452,217.987 245.785,213.154 251.5,207.5 Z"/></g>
<g><path style="opacity:0.722" fill="#d9b2b0" d="M 180.5,214.5 C 180.207,221.255 180.54,227.922 181.5,234.5C 180.508,234.672 179.842,234.338 179.5,233.5C 179.5,227.5 179.5,221.5 179.5,215.5C 179.5,214.833 179.833,214.5 180.5,214.5 Z"/></g>
<g><path style="opacity:1" fill="#040505" d="M 254.5,226.5 C 269.17,226.333 283.837,226.5 298.5,227C 300.333,227.5 301.5,228.667 302,230.5C 303.387,237.953 300.22,241.62 292.5,241.5C 279.163,241.667 265.829,241.5 252.5,241C 251,240.167 249.833,239 249,237.5C 246.975,231.668 248.808,228.002 254.5,226.5 Z"/></g>
<g><path style="opacity:1" fill="#070707" d="M 209.5,252.5 C 240.502,252.333 271.502,252.5 302.5,253C 306.126,255.251 307.293,258.418 306,262.5C 302.508,266.611 298.008,268.278 292.5,267.5C 264.165,267.667 235.831,267.5 207.5,267C 200.257,260.75 200.924,255.916 209.5,252.5 Z"/></g>
<g><path style="opacity:1" fill="#010101" d="M 209.5,272.5 C 240.502,272.333 271.502,272.5 302.5,273C 307.833,277.333 307.833,281.667 302.5,286C 271.168,286.5 239.835,286.667 208.5,286.5C 206.284,285.797 204.451,284.464 203,282.5C 201.746,276.924 203.913,273.591 209.5,272.5 Z"/></g>
<g><path style="opacity:1" fill="#608cad" d="M 450.5,286.5 C 452.722,286.178 454.556,286.845 456,288.5C 456.832,296.853 456.665,305.187 455.5,313.5C 453.253,314.374 450.92,314.708 448.5,314.5C 448.334,305.827 448.5,297.16 449,288.5C 449.717,287.956 450.217,287.289 450.5,286.5 Z"/></g>
<g><path style="opacity:1" fill="#fe5454" d="M 292.5,312.5 C 292.666,318.509 292.499,324.509 292,330.5C 291.427,332.641 290.594,334.641 289.5,336.5C 257.498,336.667 225.498,336.5 193.5,336C 190.865,334.039 189.031,331.539 188,328.5C 187.501,323.177 187.334,317.844 187.5,312.5C 222.5,312.5 257.5,312.5 292.5,312.5 Z"/></g>
<g><path style="opacity:1" fill="#f52b2b" d="M 292.5,312.5 C 300.833,312.5 309.167,312.5 317.5,312.5C 317.666,318.509 317.499,324.509 317,330.5C 315.833,333 314,334.833 311.5,336C 304.174,336.5 296.841,336.666 289.5,336.5C 290.594,334.641 291.427,332.641 292,330.5C 292.499,324.509 292.666,318.509 292.5,312.5 Z"/></g>
<g><path style="opacity:1" fill="#fd5454" d="M 453.5,329.5 C 469.464,344.777 473.964,363.11 467,384.5C 461.01,402.822 451.676,419.156 439,433.5C 430.599,442.404 421.766,450.737 412.5,458.5C 388.096,440.924 369.262,418.591 356,391.5C 351.221,380.271 349.554,368.604 351,356.5C 359.252,333.123 375.418,324.623 399.5,331C 408.06,334.893 414.727,340.893 419.5,349C 426.234,350.549 430.734,348.049 433,341.5C 438.404,335.048 445.237,331.048 453.5,329.5 Z"/></g>
<g><path style="opacity:1" fill="#f42a2a" d="M 412.5,458.5 C 421.766,450.737 430.599,442.404 439,433.5C 451.676,419.156 461.01,402.822 467,384.5C 473.964,363.11 469.464,344.777 453.5,329.5C 474.777,326.907 488.944,335.907 496,356.5C 496.973,365.299 496.306,373.965 494,382.5C 489.833,395.169 483.833,406.836 476,417.5C 460.626,436.373 443.126,453.04 423.5,467.5C 419.499,464.825 415.832,461.825 412.5,458.5 Z"/></g>
</svg>
