<?xml version="1.0" standalone="no"?>
<!DOCTYPE svg PUBLIC "-//W3C//DTD SVG 20010904//EN"
 "http://www.w3.org/TR/2001/REC-SVG-20010904/DTD/svg10.dtd">
<svg version="1.0" xmlns="http://www.w3.org/2000/svg"
 width="512.000000pt" height="512.000000pt" viewBox="0 0 512.000000 512.000000"
 preserveAspectRatio="xMidYMid meet">

<g transform="translate(0.000000,512.000000) scale(0.100000,-0.100000)"
fill="#000000" stroke="none">
<path d="M2363 4578 c-14 -16 -24 -48 -31 -106 -15 -109 -51 -211 -122 -351
-79 -154 -168 -287 -440 -651 -125 -168 -262 -357 -305 -420 -371 -552 -493
-981 -404 -1422 112 -557 564 -997 1122 -1092 112 -20 338 -22 443 -6 96 15
237 54 324 90 331 137 614 420 749 752 129 316 140 652 30 986 -53 161 -64
182 -99 182 l-30 0 0 -214 c0 -201 -1 -215 -21 -240 l-20 -26 -238 0 c-309 0
-281 -26 -281 263 l0 217 -211 0 c-213 0 -239 4 -266 39 -9 12 -12 81 -13 247
0 214 2 234 19 255 19 24 23 24 243 29 l223 5 3 195 2 195 -106 145 c-281 381
-409 630 -430 834 -9 85 -31 116 -83 116 -26 0 -44 -7 -58 -22z"/>
</g>
</svg>
